<?xml version="1.0" standalone="no"?>
<!DOCTYPE svg PUBLIC "-//W3C//DTD SVG 20010904//EN"
 "http://www.w3.org/TR/2001/REC-SVG-20010904/DTD/svg10.dtd">
<svg version="1.0" xmlns="http://www.w3.org/2000/svg"
 width="546.000000pt" height="457.000000pt" viewBox="0 0 546.000000 457.000000"
 preserveAspectRatio="xMidYMid meet">

<g transform="translate(0.000000,457.000000) scale(0.100000,-0.100000)"
fill="#000000" stroke="none">
<path d="M2571 4260 c9 -5 43 -84 75 -175 41 -114 64 -165 74 -165 10 0 24 29
42 87 15 48 25 89 23 91 -2 2 -14 -28 -26 -67 -13 -39 -25 -71 -28 -71 -6 0
-111 279 -111 293 0 3 10 8 23 10 12 2 -3 5 -33 5 -39 1 -50 -1 -39 -8z"/>
<path d="M2808 4263 c27 -5 27 -14 2 -88 -11 -32 -18 -60 -16 -62 2 -2 14 26
26 64 12 37 29 74 38 81 13 10 9 12 -29 11 -24 -1 -34 -4 -21 -6z"/>
<path d="M2432 4253 c-8 -3 -2 -15 19 -34 17 -16 33 -29 35 -29 2 0 -4 16 -14
35 -18 36 -19 37 -40 28z"/>
<path d="M2992 4223 c-2 -52 -51 -285 -63 -299 -9 -11 -7 -14 12 -14 13 0 35
-3 49 -5 24 -5 24 -5 3 4 -13 6 -23 15 -23 20 0 14 20 113 27 131 3 8 7 26 8
40 5 53 18 116 27 133 7 14 4 17 -15 17 -19 0 -24 -6 -25 -27z"/>
<path d="M2378 4233 c6 -2 18 -2 25 0 6 3 1 5 -13 5 -14 0 -19 -2 -12 -5z"/>
<path d="M3058 4233 c6 -2 18 -2 25 0 6 3 1 5 -13 5 -14 0 -19 -2 -12 -5z"/>
<path d="M2328 4223 c6 -2 18 -2 25 0 6 3 1 5 -13 5 -14 0 -19 -2 -12 -5z"/>
<path d="M3108 4223 c6 -2 18 -2 25 0 6 3 1 5 -13 5 -14 0 -19 -2 -12 -5z"/>
<path d="M3162 4221 c-10 -6 -10 -10 3 -21 8 -7 15 -21 15 -31 0 -11 3 -19 8
-19 4 0 6 18 4 40 -4 41 -8 45 -30 31z"/>
<path d="M2255 4210 c-23 -6 -25 -8 -8 -9 26 -1 24 3 59 -174 23 -118 25 -140
13 -149 -11 -8 -10 -9 4 -4 10 3 30 6 45 6 23 0 24 2 10 13 -9 6 -21 37 -27
67 -15 72 -17 82 -35 168 -9 41 -14 78 -10 83 6 10 -8 10 -51 -1z"/>
<path d="M3318 4173 c6 -2 12 -12 12 -22 0 -28 -99 -275 -115 -287 -16 -12
-14 -14 60 -39 18 -6 18 -5 3 5 -10 6 -18 16 -18 23 0 7 23 74 52 150 43 112
57 137 73 138 14 0 7 6 -20 19 -22 10 -44 18 -50 18 -5 0 -4 -2 3 -5z"/>
<path d="M1971 4109 c-45 -14 -35 -21 12 -8 54 15 107 -3 150 -51 71 -78 71
-170 -1 -231 l-37 -31 34 18 c87 49 108 134 57 231 -31 62 -135 96 -215 72z"/>
<path d="M2437 4091 c-2 -11 -15 -21 -28 -24 -17 -3 -15 -4 8 -4 17 1 39 -5
49 -13 16 -14 16 -13 -1 20 -23 45 -22 44 -28 21z"/>
<path d="M1875 4069 c-27 -12 -33 -19 -20 -19 16 0 32 -27 82 -142 57 -133 60
-144 45 -161 -12 -14 -2 -12 44 9 73 33 74 34 33 28 l-34 -6 -62 144 c-55 129
-60 144 -45 156 23 17 4 14 -43 -9z"/>
<path d="M3120 4080 c0 -6 -10 -15 -22 -20 -17 -6 -18 -9 -6 -9 9 -1 22 -9 27
-18 8 -15 10 -11 11 20 0 20 -2 37 -5 37 -3 0 -5 -5 -5 -10z"/>
<path d="M3038 4063 c6 -2 18 -2 25 0 6 3 1 5 -13 5 -14 0 -19 -2 -12 -5z"/>
<path d="M2358 4053 c7 -3 16 -2 19 1 4 3 -2 6 -13 5 -11 0 -14 -3 -6 -6z"/>
<path d="M2524 3973 c-4 -16 -14 -36 -22 -45 -14 -16 -13 -18 6 -18 16 0 22 6
23 23 0 12 2 32 5 45 6 32 -4 27 -12 -5z"/>
<path d="M3595 3978 c-52 -31 -93 -92 -101 -150 -8 -59 23 -128 70 -158 45
-27 57 -26 15 3 -43 29 -64 82 -55 140 13 85 93 177 154 177 40 0 91 -28 112
-62 29 -48 26 -114 -7 -178 -33 -63 -68 -91 -125 -101 -40 -7 -39 -8 14 -5 43
2 65 9 91 29 69 52 96 159 60 234 -37 79 -152 115 -228 71z"/>
<path d="M3137 3925 c-15 -19 -36 -35 -45 -36 -14 0 -14 -2 3 -9 31 -13 33
-12 55 31 27 52 22 58 -13 14z"/>
<path d="M2458 3903 c7 -3 16 -2 19 1 4 3 -2 6 -13 5 -11 0 -14 -3 -6 -6z"/>
<path d="M2408 3893 c6 -2 18 -2 25 0 6 3 1 5 -13 5 -14 0 -19 -2 -12 -5z"/>
<path d="M3038 3893 c7 -3 16 -2 19 1 4 3 -2 6 -13 5 -11 0 -14 -3 -6 -6z"/>
<path d="M1583 3869 c-18 -5 -35 -14 -38 -19 -4 -6 3 -6 20 0 39 15 50 13 84
-16 38 -32 42 -78 9 -120 l-23 -29 26 20 c14 11 26 24 27 30 1 5 4 22 8 37 11
46 -3 78 -41 94 -19 8 -36 14 -37 13 -2 0 -17 -5 -35 -10z"/>
<path d="M3406 3824 c-28 -25 -34 -25 -93 -9 -10 3 -2 -2 17 -11 19 -9 40 -20
46 -25 8 -6 20 4 38 31 14 22 25 40 24 40 -2 0 -16 -12 -32 -26z"/>
<path d="M1480 3800 c-28 -25 -37 -38 -25 -35 16 4 41 -21 114 -112 52 -64 94
-125 94 -135 -2 -15 9 -10 48 22 27 23 49 44 49 48 0 3 -10 -4 -23 -16 -13
-12 -28 -22 -34 -22 -17 0 -95 100 -89 115 3 9 0 12 -8 9 -8 -3 -34 21 -64 58
l-50 63 21 23 c31 33 17 26 -33 -18z"/>
<path d="M3990 3787 c12 -17 3 -29 -103 -134 -105 -106 -117 -115 -134 -103
-10 8 0 -5 22 -28 38 -41 61 -58 35 -27 -11 13 -7 22 26 58 21 23 40 43 41 45
1 2 16 -12 34 -32 62 -72 136 -84 178 -30 49 62 29 135 -60 219 -29 28 -47 42
-39 32z m73 -77 c51 -60 40 -136 -23 -174 -41 -24 -81 -14 -120 31 l-32 36 68
68 c38 38 72 69 75 69 4 0 18 -13 32 -30z"/>
<path d="M1710 3740 c-11 -7 -8 -10 16 -10 34 0 74 -35 74 -64 0 -9 -7 -30
-15 -46 -21 -40 -10 -38 15 3 25 40 26 89 2 110 -20 19 -69 22 -92 7z"/>
<path d="M1330 3661 c0 -6 -24 -38 -53 -73 -29 -35 -59 -72 -67 -83 -14 -19
-14 -19 3 -6 11 9 21 10 30 4 6 -5 61 -49 120 -98 92 -76 108 -93 104 -113 -2
-13 -1 -20 2 -15 4 4 31 37 61 73 29 36 62 73 72 82 19 17 19 18 -7 53 -33 43
-41 45 -20 5 8 -16 15 -35 15 -43 0 -17 -77 -107 -92 -107 -5 0 -34 21 -64 46
l-54 46 36 44 c22 26 45 44 58 44 20 1 20 2 -4 15 -33 19 -42 18 -36 -2 3 -11
-7 -33 -28 -57 l-33 -39 -61 49 c-33 27 -61 52 -61 55 -1 4 20 29 47 57 40 43
51 50 77 46 l30 -5 -25 15 c-29 18 -50 20 -50 7z"/>
<path d="M4227 3511 c-2 -10 -60 -56 -128 -101 -106 -71 -125 -81 -141 -71
-11 7 3 -21 32 -64 28 -41 53 -75 56 -75 2 0 -7 17 -21 37 -14 21 -25 45 -25
54 0 15 99 89 119 89 5 0 11 4 13 8 2 5 30 27 64 50 57 38 62 40 79 24 9 -9 5
2 -10 26 -15 23 -29 42 -30 42 -2 0 -5 -9 -8 -19z"/>
<path d="M1112 3375 c-11 -23 -10 -24 7 -13 17 10 32 -1 125 -88 105 -98 122
-120 89 -110 -10 2 -65 12 -123 21 -149 22 -158 24 -162 42 -2 10 -9 3 -19
-18 l-17 -35 34 4 c32 4 42 -3 129 -89 52 -51 93 -94 91 -96 -4 -4 -275 35
-295 42 -7 3 -10 12 -7 20 12 32 -5 13 -19 -21 -19 -45 -19 -43 5 -37 19 5
317 -34 333 -44 4 -2 10 2 12 10 4 8 -31 49 -87 105 -51 50 -90 93 -88 95 7 6
222 -27 237 -36 7 -4 16 0 21 10 7 15 -15 40 -123 140 -130 120 -132 122 -143
98z"/>
<path d="M4327 3357 c-2 -12 -8 -31 -12 -42 -5 -14 1 -11 19 10 29 35 31 41
12 48 -9 4 -16 -3 -19 -16z"/>
<path d="M4164 3318 c11 -16 15 -35 11 -48 -9 -29 0 -25 26 12 13 17 17 28 10
24 -8 -5 -22 1 -38 15 l-26 24 17 -27z"/>
<path d="M4420 3216 c0 -16 -285 -140 -300 -131 -14 9 -12 -6 5 -35 8 -14 14
-19 15 -12 0 7 25 23 56 37 67 30 61 29 67 8 4 -15 5 -14 6 3 1 16 19 28 84
55 45 18 85 33 89 32 4 -2 2 11 -4 27 -11 32 -18 38 -18 16z"/>
<path d="M4058 3168 c2 -10 8 -18 12 -18 9 0 80 29 80 33 0 1 -22 2 -48 2 -42
0 -48 -3 -44 -17z"/>
<path d="M4451 3155 c1 -19 18 -51 18 -35 0 8 -4 22 -9 30 -5 8 -9 11 -9 5z"/>
<path d="M4471 3077 c-2 -43 -60 -97 -103 -97 -40 0 -60 13 -82 55 -15 29 -16
29 -10 4 8 -36 -62 -145 -82 -128 -9 7 -8 -2 4 -32 13 -33 18 -38 22 -23 4 15
55 97 77 123 2 3 17 -3 32 -12 79 -46 162 15 148 109 l-4 29 -2 -28z"/>
<path d="M870 2556 l0 -116 125 0 125 0 0 110 0 110 -33 0 c-19 0 -75 3 -125
6 l-92 7 0 -117z"/>
<path d="M4380 2555 l0 -115 120 0 120 0 0 109 0 108 -92 7 c-50 3 -104 6
-120 6 l-28 0 0 -115z"/>
<path d="M989 2135 c-108 -35 -155 -168 -89 -257 12 -16 16 -29 10 -33 -28
-17 -3 -21 52 -8 58 13 63 13 76 -4 14 -17 14 -17 8 0 -3 10 -6 30 -6 44 0 24
-1 25 -17 11 -24 -21 -80 -30 -103 -18 -24 13 -43 82 -35 120 21 95 160 155
258 112 53 -23 69 -48 78 -117 l6 -50 2 43 c4 121 -114 197 -240 157z"/>
<path d="M4314 2134 c-30 -15 -74 -78 -74 -105 1 -8 7 0 14 17 29 65 110 86
162 41 21 -19 26 -32 27 -68 0 -30 2 -37 6 -20 8 31 128 82 142 60 7 -11 9 -9
9 6 0 11 3 31 6 45 3 15 2 20 -3 13 -5 -6 -39 -25 -76 -42 l-67 -30 -13 32
c-8 18 -20 37 -28 43 -25 21 -73 25 -105 8z"/>
<path d="M4231 1999 c0 -9 -4 -32 -7 -50 -4 -23 -3 -30 4 -21 8 11 33 9 143
-12 189 -37 179 -34 180 -59 1 -18 3 -16 9 8 13 50 12 69 -2 57 -9 -7 -32 -6
-71 1 -51 9 -57 13 -51 31 6 20 5 20 -8 3 -13 -18 -18 -18 -97 -3 -46 9 -85
16 -86 16 -2 0 -6 10 -8 23 -2 12 -5 15 -6 6z"/>
<path d="M1185 1892 l-29 -35 29 16 c54 29 57 33 43 44 -10 7 -21 1 -43 -25z"/>
<path d="M4183 1829 c-1 -15 2 -18 10 -11 7 5 26 14 42 20 l30 10 -40 1 c-34
1 -41 -2 -42 -20z"/>
<path d="M1261 1814 c-1 -28 -276 -150 -299 -132 -11 10 -11 4 2 -27 20 -47
26 -54 26 -31 0 11 19 26 58 42 258 113 243 104 227 139 -11 24 -14 26 -14 9z"/>
<path d="M4166 1785 c-9 -26 -7 -32 5 -12 6 10 9 21 6 23 -2 3 -7 -2 -11 -11z"/>
<path d="M4474 1744 c17 -26 24 -48 20 -60 -3 -10 3 -6 13 11 l19 30 -25 19
c-14 11 -32 24 -40 30 -8 6 -2 -7 13 -30z"/>
<path d="M4321 1753 c6 -6 8 -22 4 -35 -6 -22 -5 -22 8 1 8 14 23 28 33 32 14
4 9 7 -18 10 -29 4 -35 2 -27 -8z"/>
<path d="M4146 1735 c-9 -26 -7 -32 5 -12 6 10 9 21 6 23 -2 3 -7 -2 -11 -11z"/>
<path d="M1311 1672 c-2 -98 -121 -139 -172 -59 -12 17 -18 24 -15 13 8 -23
-63 -138 -80 -132 -8 3 -6 -10 5 -34 14 -35 17 -37 21 -17 3 12 20 47 39 78
l34 57 31 -19 c17 -10 43 -19 57 -19 60 0 109 77 90 142 l-9 33 -1 -43z"/>
<path d="M4121 1668 c-11 -31 -11 -32 5 -17 15 16 26 13 158 -41 96 -39 142
-64 144 -75 3 -12 10 -4 23 25 22 49 24 61 6 36 -12 -16 -17 -15 -85 11 -47
18 -70 32 -67 41 14 35 15 44 0 20 l-15 -28 -53 21 c-79 32 -98 39 -102 39 -2
0 -8 -15 -14 -32z"/>
<path d="M1111 1664 c0 -11 3 -14 6 -6 3 7 2 16 -1 19 -3 4 -6 -2 -5 -13z"/>
<path d="M4476 1645 c-9 -26 -7 -32 5 -12 6 10 9 21 6 23 -2 3 -7 -2 -11 -11z"/>
<path d="M4084 1588 c-4 -7 -15 -24 -23 -38 -15 -23 -14 -24 1 -12 10 8 23 10
30 6 42 -24 208 -139 208 -144 0 -3 -80 -12 -177 -18 -129 -9 -182 -17 -193
-27 -12 -13 -10 -15 18 -15 23 0 63 -21 147 -77 98 -65 114 -79 110 -97 -6
-21 -6 -21 10 -1 9 11 21 28 26 38 9 16 8 17 -10 5 -17 -10 -32 -4 -121 56
-57 37 -98 71 -94 75 5 5 83 13 173 20 90 6 168 14 172 17 16 10 9 24 -11 24
-11 0 -75 36 -141 81 -97 65 -120 84 -116 100 6 22 2 25 -9 7z"/>
<path d="M1440 1467 c0 -9 -6 -17 -12 -18 -7 0 -5 -3 4 -7 14 -6 8 -20 -43
-90 -35 -47 -65 -79 -71 -76 -7 4 -8 2 -4 -4 4 -7 -7 -32 -25 -57 -32 -44 -49
-56 -49 -33 0 6 -3 9 -6 5 -3 -3 5 -20 18 -37 20 -27 24 -29 28 -13 7 25 182
271 196 275 8 2 3 16 -12 38 -16 23 -24 29 -24 17z"/>
<path d="M1255 1399 c-71 -22 -135 -37 -143 -34 -9 3 -10 0 -2 -15 12 -23 32
-37 24 -17 -4 11 9 20 47 32 l53 18 21 -28 c40 -55 56 -69 25 -22 -18 27 -30
50 -28 52 1 1 39 14 83 28 44 14 73 25 65 25 -8 0 -73 -18 -145 -39z"/>
<path d="M1586 1276 c4 -10 -28 -52 -98 -126 -83 -90 -107 -110 -125 -107 -13
2 -23 4 -23 3 0 -1 21 -19 48 -41 26 -21 38 -29 28 -16 l-20 22 42 42 42 42
28 -32 c78 -84 167 -80 201 10 15 39 0 92 -39 139 -37 45 -93 87 -84 64z m80
-71 c18 -24 27 -48 28 -76 1 -35 -5 -46 -36 -75 -50 -45 -78 -44 -130 5 l-42
38 64 72 c34 39 69 71 76 71 7 0 25 -16 40 -35z"/>
<path d="M3856 1265 c-4 -11 1 -15 17 -15 12 0 33 -3 47 -6 20 -4 18 -1 -10
15 -43 25 -46 25 -54 6z"/>
<path d="M3790 1224 c-42 -36 -60 -74 -60 -132 0 -127 148 -225 256 -169 34
18 84 71 84 90 0 7 -9 -1 -20 -18 -58 -88 -176 -84 -258 9 -74 84 -60 183 33
234 11 6 15 12 8 12 -6 0 -25 -12 -43 -26z"/>
<path d="M3995 1124 c-26 -23 -31 -31 -16 -23 23 11 28 8 60 -27 19 -21 43
-39 53 -39 26 -2 23 7 -23 50 -25 26 -38 46 -35 58 2 9 3 17 3 17 -1 -1 -20
-17 -42 -36z"/>
<path d="M1797 1079 c5 -17 -84 -176 -143 -256 l-24 -31 38 -22 c31 -19 34
-19 20 -4 -16 18 -15 22 18 77 20 31 40 57 44 57 12 0 160 -90 160 -97 0 -3
-16 -32 -37 -64 -30 -49 -40 -58 -57 -54 -12 4 -1 -5 23 -20 24 -14 46 -23 49
-20 3 3 0 5 -6 5 -22 0 -12 21 68 156 58 95 85 132 95 127 27 -10 15 5 -21 26
-41 25 -51 26 -34 7 9 -12 4 -28 -27 -80 -21 -36 -42 -66 -47 -66 -7 0 -151
84 -164 95 -8 7 82 134 96 137 12 2 6 9 -19 25 -34 20 -36 20 -32 2z"/>
<path d="M3581 1050 c-30 -21 -38 -30 -23 -28 17 2 37 -22 107 -126 49 -73 84
-135 81 -143 -4 -9 5 -6 27 8 42 29 46 34 24 26 -14 -5 -35 20 -104 124 -76
114 -85 133 -75 150 16 24 15 24 -37 -11z"/>
<path d="M3470 972 c0 -7 -15 -13 -32 -13 l-33 -1 37 -7 c20 -4 48 -15 62 -25
35 -22 33 -6 -4 29 -16 16 -30 23 -30 17z"/>
<path d="M3363 932 c-35 -27 -45 -67 -29 -107 19 -46 42 -55 134 -55 65 0 84
-4 106 -21 80 -63 -31 -154 -127 -104 l-28 14 21 -29 c24 -34 42 -47 38 -29
-2 8 12 15 37 19 73 11 105 41 105 97 -1 60 -42 83 -148 83 -89 0 -116 13
-128 62 -5 22 0 33 24 58 33 33 30 40 -5 12z"/>
<path d="M2136 897 c2 -7 -20 -76 -49 -153 -44 -112 -59 -140 -76 -144 -19 -4
-15 -8 24 -23 38 -13 45 -14 35 -3 -16 20 95 306 119 306 9 1 1 7 -18 15 -41
18 -42 18 -35 2z"/>
<path d="M3210 870 c-13 -8 -13 -10 -1 -10 8 0 28 -12 44 -27 31 -29 31 -27 8
20 -15 29 -27 33 -51 17z"/>
<path d="M3138 843 c7 -3 16 -2 19 1 4 3 -2 6 -13 5 -11 0 -14 -3 -6 -6z"/>
<path d="M2368 833 c7 -3 16 -2 19 1 4 3 -2 6 -13 5 -11 0 -14 -3 -6 -6z"/>
<path d="M2290 808 c-99 -68 -108 -243 -16 -303 64 -42 152 -39 192 7 l19 22
-32 -22 c-63 -44 -159 -19 -195 51 -40 79 -7 203 66 248 18 11 24 19 15 19 -9
0 -31 -10 -49 -22z"/>
<path d="M3045 821 c-20 -8 -20 -8 0 -12 16 -3 27 -31 61 -151 35 -128 39
-149 26 -161 -12 -13 -9 -13 26 -4 31 8 38 13 28 21 -16 13 -49 132 -41 146 3
6 2 10 -3 10 -6 0 -13 12 -17 28 -31 130 -38 139 -80 123z"/>
<path d="M2484 776 c14 -21 26 -46 26 -54 0 -8 3 -13 6 -9 10 9 -7 88 -17 81
-6 -3 -17 0 -26 7 -8 8 -4 -4 11 -25z"/>
<path d="M2686 780 c23 -9 24 -14 40 -232 5 -77 4 -87 -13 -97 -17 -10 -16
-10 4 -11 45 0 50 7 42 68 -4 31 -10 105 -13 164 -6 97 -5 107 11 111 10 3 -7
5 -37 5 -40 1 -49 -2 -34 -8z"/>
<path d="M2849 778 c52 -15 78 -36 101 -82 38 -80 18 -178 -44 -218 -28 -17
-28 -19 -6 -13 41 12 89 64 98 109 10 49 -2 109 -28 147 -23 32 -95 69 -131
68 -20 -1 -18 -2 10 -11z"/>
<path d="M3238 712 c-3 -12 3 -22 18 -29 23 -11 23 -11 8 18 -17 34 -20 35
-26 11z"/>
<path d="M3175 680 c-13 -5 -14 -9 -5 -9 8 0 24 4 35 9 13 5 14 9 5 9 -8 0
-24 -4 -35 -9z"/>
<path d="M3330 604 c0 -32 -16 -58 -40 -67 -8 -3 1 -4 20 -3 34 3 34 4 31 47
-3 51 -11 66 -11 23z"/>
<path d="M3218 513 c7 -3 16 -2 19 1 4 3 -2 6 -13 5 -11 0 -14 -3 -6 -6z"/>
<path d="M2833 453 c9 -2 23 -2 30 0 6 3 -1 5 -18 5 -16 0 -22 -2 -12 -5z"/>
</g>
</svg>
